<?xml version="1.0" encoding="UTF-8"?>
<!DOCTYPE svg PUBLIC "-//W3C//DTD SVG 1.1//EN" "http://www.w3.org/Graphics/SVG/1.1/DTD/svg11.dtd">
<!-- Creator: CorelDRAW -->
<svg xmlns="http://www.w3.org/2000/svg" xml:space="preserve" width="6.82666in" height="6.82666in" style="shape-rendering:geometricPrecision; text-rendering:geometricPrecision; image-rendering:optimizeQuality; fill-rule:evenodd; clip-rule:evenodd"
viewBox="0 0 6.82666 6.82666"
 xmlns:xlink="http://www.w3.org/1999/xlink">
 <defs>
  <style type="text/css">
   <![CDATA[
    .fil5 {fill:none}
    .fil1 {fill:#212121}
    .fil4 {fill:#949494}
    .fil2 {fill:#EBE5DF}
    .fil3 {fill:#F45A52}
    .fil0 {fill:#212121;fill-rule:nonzero}
   ]]>
  </style>
 </defs>
 <g id="Layer_x0020_1">
  <metadata id="CorelCorpID_0Corel-Layer"/>
  <path class="fil0" d="M0.887744 0.85711l5.05118 0c0.0589094,0 0.106669,0.0477598 0.106669,0.106669l0 4.89911c0,0.0589094 -0.0477598,0.106669 -0.106669,0.106669l-5.05118 0c-0.0589094,0 -0.106669,-0.0477598 -0.106669,-0.106669l0 -4.89911c0,-0.0589094 0.0477598,-0.106669 0.106669,-0.106669zm4.94451 0.213339l-4.83784 0 0 4.68577 4.83784 0 0 -4.68577z"/>
  <g id="_513121408">
   <g>
    <path id="_253749528" class="fil0" d="M4.37148 1.25333l1.14852 0c0.0441811,0 0.08,0.0358189 0.08,0.08l0 1.8973c0,0.0441811 -0.0358189,0.08 -0.08,0.08l-1.14852 0c-0.0441811,0 -0.08,-0.0358189 -0.08,-0.08l0 -1.8973c0,-0.0441811 0.0358189,-0.08 0.08,-0.08zm1.06852 0.16l-0.98852 0 0 1.7373 0.98852 0 0 -1.7373z"/>
    <g>
     <path id="_253749024" class="fil0" d="M4.61537 2.66704c0,-0.0294528 0.0238819,-0.0533346 0.0533346,-0.0533346 0.0294528,0 0.0533346,0.0238819 0.0533346,0.0533346l0 0.333335c0,0.0294528 -0.0238819,0.0533346 -0.0533346,0.0533346 -0.0294528,0 -0.0533346,-0.0238819 -0.0533346,-0.0533346l0 -0.333335z"/>
     <path id="_253749480" class="fil0" d="M4.80006 2.66704c0,-0.0294528 0.0238819,-0.0533346 0.0533346,-0.0533346 0.0294528,0 0.0533346,0.0238819 0.0533346,0.0533346l0 0.333335c0,0.0294528 -0.0238819,0.0533346 -0.0533346,0.0533346 -0.0294528,0 -0.0533346,-0.0238819 -0.0533346,-0.0533346l0 -0.333335z"/>
     <path id="_253748784" class="fil0" d="M4.98474 2.66704c0,-0.0294528 0.0238819,-0.0533346 0.0533346,-0.0533346 0.0294528,0 0.0533346,0.0238819 0.0533346,0.0533346l0 0.333335c0,0.0294528 -0.0238819,0.0533346 -0.0533346,0.0533346 -0.0294528,0 -0.0533346,-0.0238819 -0.0533346,-0.0533346l0 -0.333335z"/>
     <path id="_253748760" class="fil0" d="M5.16943 2.66704c0,-0.0294528 0.0238819,-0.0533346 0.0533346,-0.0533346 0.0294528,0 0.0533346,0.0238819 0.0533346,0.0533346l0 0.333335c0,0.0294528 -0.0238819,0.0533346 -0.0533346,0.0533346 -0.0294528,0 -0.0533346,-0.0238819 -0.0533346,-0.0533346l0 -0.333335z"/>
    </g>
    <path id="_253748304" class="fil0" d="M4.69424 1.97333c0.0353976,0 0.0675118,0.0144134 0.090811,0.0377047l0.000204724 0.000212598 3.93701e-006 -3.93701e-006c0.0232913,0.0232992 0.0377047,0.0554134 0.0377047,0.090811 0,0.0355394 -0.0144094,0.0677205 -0.0377047,0.0910157 -0.0232992,0.0232992 -0.0554803,0.0377087 -0.0910197,0.0377087 -0.0352992,0 -0.0674094,-0.0144016 -0.0908071,-0.0377087l-0.000102362 -0.000106299 -0.000106299 -0.000102362 -0.000125984 -0.000129921c-0.0232323,-0.0233858 -0.0375827,-0.0554409 -0.0375827,-0.0906772 0,-0.0355394 0.0144094,-0.0677205 0.0377087,-0.0910197 0.0232953,-0.0232953 0.0554764,-0.0377047 0.0910157,-0.0377047zm0.0157047 0.11302c-0.00397638,-0.0039252 -0.00952362,-0.00635039 -0.0157047,-0.00635039 -0.00609055,0 -0.0116142,0.0024685 -0.0155984,0.00645276 -0.00398819,0.00398819 -0.00645669,0.00951181 -0.00645669,0.0156024 0,0.00623228 0.00238976,0.0117441 0.00624803,0.0155984l-3.93701e-006 3.93701e-006 0.000212598 0.000204724c0.00385433,0.00385827 0.00936614,0.00624803 0.0155984,0.00624803 0.00609055,0 0.0116142,-0.0024685 0.0156024,-0.00645669 0.00398425,-0.00398425 0.00645276,-0.00950787 0.00645276,-0.0155984 0,-0.0061811 -0.0024252,-0.0117283 -0.00635039,-0.0157047z"/>
   </g>
   <g>
    <path id="_253748544" class="fil0" d="M2.83907 1.25333l1.14852 0c0.0441811,0 0.08,0.0358189 0.08,0.08l0 1.8973c0,0.0441811 -0.0358189,0.08 -0.08,0.08l-1.14852 0c-0.0441811,0 -0.08,-0.0358189 -0.08,-0.08l0 -1.8973c0,-0.0441811 0.0358189,-0.08 0.08,-0.08zm1.06852 0.16l-0.98852 0 0 1.7373 0.98852 0 0 -1.7373z"/>
    <g>
     <path id="_253748112" class="fil0" d="M3.08297 2.66704c0,-0.0294528 0.0238819,-0.0533346 0.0533346,-0.0533346 0.0294528,0 0.0533346,0.0238819 0.0533346,0.0533346l0 0.333335c0,0.0294528 -0.0238819,0.0533346 -0.0533346,0.0533346 -0.0294528,0 -0.0533346,-0.0238819 -0.0533346,-0.0533346l0 -0.333335z"/>
     <path id="_253748352" class="fil0" d="M3.26765 2.66704c0,-0.0294528 0.0238819,-0.0533346 0.0533346,-0.0533346 0.0294528,0 0.0533346,0.0238819 0.0533346,0.0533346l0 0.333335c0,0.0294528 -0.0238819,0.0533346 -0.0533346,0.0533346 -0.0294528,0 -0.0533346,-0.0238819 -0.0533346,-0.0533346l0 -0.333335z"/>
     <path id="_253748496" class="fil0" d="M3.45234 2.66704c0,-0.0294528 0.0238819,-0.0533346 0.0533346,-0.0533346 0.0294528,0 0.0533346,0.0238819 0.0533346,0.0533346l0 0.333335c0,0.0294528 -0.0238819,0.0533346 -0.0533346,0.0533346 -0.0294528,0 -0.0533346,-0.0238819 -0.0533346,-0.0533346l0 -0.333335z"/>
     <path id="_253748376" class="fil0" d="M3.63702 2.66704c0,-0.0294528 0.0238819,-0.0533346 0.0533346,-0.0533346 0.0294528,0 0.0533346,0.0238819 0.0533346,0.0533346l0 0.333335c0,0.0294528 -0.0238819,0.0533346 -0.0533346,0.0533346 -0.0294528,0 -0.0533346,-0.0238819 -0.0533346,-0.0533346l0 -0.333335z"/>
    </g>
    <path id="_253747608" class="fil0" d="M3.16183 1.97333c0.0355394,0 0.0677205,0.0144094 0.0910157,0.0377047 0.0232992,0.0232992 0.0377087,0.0554803 0.0377087,0.0910197 0,0.0352992 -0.0144016,0.0674094 -0.0377087,0.0908071l-0.000106299 0.000102362 -0.000102362 0.000106299 -0.000129921 0.000125984c-0.0233858,0.0232323 -0.0554409,0.0375827 -0.0906772,0.0375827 -0.0355394,0 -0.0677205,-0.0144094 -0.0910197,-0.0377087 -0.0232953,-0.0232953 -0.0377047,-0.0554764 -0.0377047,-0.0910157 0,-0.0353976 0.0144134,-0.0675118 0.0377047,-0.090811l0.000212598 -0.000204724 -3.93701e-006 -3.93701e-006c0.0232992,-0.0232913 0.0554134,-0.0377047 0.090811,-0.0377047zm0.0155984 0.113122c-0.00398425,-0.00398425 -0.00950787,-0.00645276 -0.0155984,-0.00645276 -0.0061811,0 -0.0117283,0.0024252 -0.0157047,0.00635039 -0.0039252,0.00397638 -0.00635039,0.00952362 -0.00635039,0.0157047 0,0.00609055 0.0024685,0.0116142 0.00645276,0.0155984 0.00398819,0.00398819 0.00951181,0.00645669 0.0156024,0.00645669 0.00623228,0 0.0117441,-0.00238976 0.0155984,-0.00624803l3.93701e-006 3.93701e-006 0.000204724 -0.000212598c0.00385827,-0.00385433 0.00624803,-0.00936614 0.00624803,-0.0155984 0,-0.00609055 -0.0024685,-0.0116142 -0.00645669,-0.0156024z"/>
   </g>
   <g>
    <path id="_253747464" class="fil0" d="M3.08297 2.66704c0,-0.0294528 0.0238819,-0.0533346 0.0533346,-0.0533346 0.0294528,0 0.0533346,0.0238819 0.0533346,0.0533346l0 0.333335c0,0.0294528 -0.0238819,0.0533346 -0.0533346,0.0533346 -0.0294528,0 -0.0533346,-0.0238819 -0.0533346,-0.0533346l0 -0.333335z"/>
    <path id="_253747656" class="fil0" d="M3.26765 2.66704c0,-0.0294528 0.0238819,-0.0533346 0.0533346,-0.0533346 0.0294528,0 0.0533346,0.0238819 0.0533346,0.0533346l0 0.333335c0,0.0294528 -0.0238819,0.0533346 -0.0533346,0.0533346 -0.0294528,0 -0.0533346,-0.0238819 -0.0533346,-0.0533346l0 -0.333335z"/>
    <path id="_253748064" class="fil0" d="M3.45234 2.66704c0,-0.0294528 0.0238819,-0.0533346 0.0533346,-0.0533346 0.0294528,0 0.0533346,0.0238819 0.0533346,0.0533346l0 0.333335c0,0.0294528 -0.0238819,0.0533346 -0.0533346,0.0533346 -0.0294528,0 -0.0533346,-0.0238819 -0.0533346,-0.0533346l0 -0.333335z"/>
    <path id="_253747704" class="fil0" d="M3.63702 2.66704c0,-0.0294528 0.0238819,-0.0533346 0.0533346,-0.0533346 0.0294528,0 0.0533346,0.0238819 0.0533346,0.0533346l0 0.333335c0,0.0294528 -0.0238819,0.0533346 -0.0533346,0.0533346 -0.0294528,0 -0.0533346,-0.0238819 -0.0533346,-0.0533346l0 -0.333335z"/>
   </g>
   <g>
    <path id="_253747848" class="fil0" d="M4.61537 2.66704c0,-0.0294528 0.0238819,-0.0533346 0.0533346,-0.0533346 0.0294528,0 0.0533346,0.0238819 0.0533346,0.0533346l0 0.333335c0,0.0294528 -0.0238819,0.0533346 -0.0533346,0.0533346 -0.0294528,0 -0.0533346,-0.0238819 -0.0533346,-0.0533346l0 -0.333335z"/>
    <path id="_253747968" class="fil0" d="M4.80006 2.66704c0,-0.0294528 0.0238819,-0.0533346 0.0533346,-0.0533346 0.0294528,0 0.0533346,0.0238819 0.0533346,0.0533346l0 0.333335c0,0.0294528 -0.0238819,0.0533346 -0.0533346,0.0533346 -0.0294528,0 -0.0533346,-0.0238819 -0.0533346,-0.0533346l0 -0.333335z"/>
    <path id="_253747800" class="fil0" d="M4.98474 2.66704c0,-0.0294528 0.0238819,-0.0533346 0.0533346,-0.0533346 0.0294528,0 0.0533346,0.0238819 0.0533346,0.0533346l0 0.333335c0,0.0294528 -0.0238819,0.0533346 -0.0533346,0.0533346 -0.0294528,0 -0.0533346,-0.0238819 -0.0533346,-0.0533346l0 -0.333335z"/>
    <path id="_253747752" class="fil0" d="M5.16943 2.66704c0,-0.0294528 0.0238819,-0.0533346 0.0533346,-0.0533346 0.0294528,0 0.0533346,0.0238819 0.0533346,0.0533346l0 0.333335c0,0.0294528 -0.0238819,0.0533346 -0.0533346,0.0533346 -0.0294528,0 -0.0533346,-0.0238819 -0.0533346,-0.0533346l0 -0.333335z"/>
   </g>
   <g>
    <path id="_514593760" class="fil0" d="M1.30667 1.25333l1.14852 0c0.0441811,0 0.08,0.0358189 0.08,0.08l0 1.8973c0,0.0441811 -0.0358189,0.08 -0.08,0.08l-1.14852 0c-0.0441811,0 -0.08,-0.0358189 -0.08,-0.08l0 -1.8973c0,-0.0441811 0.0358189,-0.08 0.08,-0.08zm1.06852 0.16l-0.98852 0 0 1.7373 0.98852 0 0 -1.7373z"/>
    <g>
     <path id="_514596808" class="fil0" d="M1.55056 2.66704c0,-0.0294528 0.0238819,-0.0533346 0.0533346,-0.0533346 0.0294528,0 0.0533346,0.0238819 0.0533346,0.0533346l0 0.333335c0,0.0294528 -0.0238819,0.0533346 -0.0533346,0.0533346 -0.0294528,0 -0.0533346,-0.0238819 -0.0533346,-0.0533346l0 -0.333335z"/>
     <path id="_513121864" class="fil0" d="M1.73525 2.66704c0,-0.0294528 0.0238819,-0.0533346 0.0533346,-0.0533346 0.0294528,0 0.0533346,0.0238819 0.0533346,0.0533346l0 0.333335c0,0.0294528 -0.0238819,0.0533346 -0.0533346,0.0533346 -0.0294528,0 -0.0533346,-0.0238819 -0.0533346,-0.0533346l0 -0.333335z"/>
     <path id="_513121792" class="fil0" d="M1.91993 2.66704c0,-0.0294528 0.0238819,-0.0533346 0.0533346,-0.0533346 0.0294528,0 0.0533346,0.0238819 0.0533346,0.0533346l0 0.333335c0,0.0294528 -0.0238819,0.0533346 -0.0533346,0.0533346 -0.0294528,0 -0.0533346,-0.0238819 -0.0533346,-0.0533346l0 -0.333335z"/>
     <path id="_513121312" class="fil0" d="M2.10462 2.66704c0,-0.0294528 0.0238819,-0.0533346 0.0533346,-0.0533346 0.0294528,0 0.0533346,0.0238819 0.0533346,0.0533346l0 0.333335c0,0.0294528 -0.0238819,0.0533346 -0.0533346,0.0533346 -0.0294528,0 -0.0533346,-0.0238819 -0.0533346,-0.0533346l0 -0.333335z"/>
    </g>
    <path id="_513121504" class="fil0" d="M1.62943 1.97333c0.0355394,0 0.0677205,0.0144094 0.0910157,0.0377047 0.0232992,0.0232992 0.0377087,0.0554803 0.0377087,0.0910197 0,0.0352992 -0.0144016,0.0674094 -0.0377087,0.0908071l-0.000106299 0.000102362 -0.000102362 0.000106299 -0.000129921 0.000125984c-0.0233858,0.0232323 -0.0554409,0.0375827 -0.0906772,0.0375827 -0.0355394,0 -0.0677205,-0.0144094 -0.0910197,-0.0377087 -0.0232953,-0.0232953 -0.0377047,-0.0554764 -0.0377047,-0.0910157 0,-0.0353976 0.0144134,-0.0675118 0.0377047,-0.090811l0.000212598 -0.000204724 -3.93701e-006 -3.93701e-006c0.0232992,-0.0232913 0.0554134,-0.0377047 0.090811,-0.0377047zm0.0155984 0.113122c-0.00398425,-0.00398425 -0.00950787,-0.00645276 -0.0155984,-0.00645276 -0.0061811,0 -0.0117283,0.0024252 -0.0157047,0.00635039 -0.0039252,0.00397638 -0.00635039,0.00952362 -0.00635039,0.0157047 0,0.00609055 0.0024685,0.0116142 0.00645276,0.0155984 0.00398819,0.00398819 0.00951181,0.00645669 0.0156024,0.00645669 0.00623228,0 0.0117441,-0.00238976 0.0155984,-0.00624803l3.93701e-006 3.93701e-006 0.000204724 -0.000212598c0.00385827,-0.00385433 0.00624803,-0.00936614 0.00624803,-0.0155984 0,-0.00609055 -0.0024685,-0.0116142 -0.00645669,-0.0156024z"/>
   </g>
  </g>
  <path class="fil0" d="M4.37148 3.51603l1.14852 0c0.0441811,0 0.08,0.0358189 0.08,0.08l0 1.8973c0,0.0441811 -0.0358189,0.08 -0.08,0.08l-1.14852 0c-0.0441811,0 -0.08,-0.0358189 -0.08,-0.08l0 -1.8973c0,-0.0441811 0.0358189,-0.08 0.08,-0.08zm1.06852 0.16l-0.98852 0 0 1.7373 0.98852 0 0 -1.7373z"/>
  <path class="fil0" d="M4.61537 4.92974c0,-0.0294528 0.0238819,-0.0533346 0.0533346,-0.0533346 0.0294528,0 0.0533346,0.0238819 0.0533346,0.0533346l0 0.333335c0,0.0294528 -0.0238819,0.0533346 -0.0533346,0.0533346 -0.0294528,0 -0.0533346,-0.0238819 -0.0533346,-0.0533346l0 -0.333335z"/>
  <path class="fil0" d="M4.80006 4.92974c0,-0.0294528 0.0238819,-0.0533346 0.0533346,-0.0533346 0.0294528,0 0.0533346,0.0238819 0.0533346,0.0533346l0 0.333335c0,0.0294528 -0.0238819,0.0533346 -0.0533346,0.0533346 -0.0294528,0 -0.0533346,-0.0238819 -0.0533346,-0.0533346l0 -0.333335z"/>
  <path class="fil0" d="M4.98474 4.92974c0,-0.0294528 0.0238819,-0.0533346 0.0533346,-0.0533346 0.0294528,0 0.0533346,0.0238819 0.0533346,0.0533346l0 0.333335c0,0.0294528 -0.0238819,0.0533346 -0.0533346,0.0533346 -0.0294528,0 -0.0533346,-0.0238819 -0.0533346,-0.0533346l0 -0.333335z"/>
  <path class="fil0" d="M5.16943 4.92974c0,-0.0294528 0.0238819,-0.0533346 0.0533346,-0.0533346 0.0294528,0 0.0533346,0.0238819 0.0533346,0.0533346l0 0.333335c0,0.0294528 -0.0238819,0.0533346 -0.0533346,0.0533346 -0.0294528,0 -0.0533346,-0.0238819 -0.0533346,-0.0533346l0 -0.333335z"/>
  <path class="fil0" d="M4.69424 4.23602c0.0355394,0 0.0677205,0.0144094 0.0910197,0.0377087 0.0232953,0.0232953 0.0377047,0.0554764 0.0377047,0.0910157 0,0.0353976 -0.0144134,0.0675118 -0.0377047,0.090811l-0.000212598 0.000204724 3.93701e-006 3.93701e-006c-0.0232992,0.0232913 -0.0554134,0.0377047 -0.090811,0.0377047 -0.0355394,0 -0.0677205,-0.0144094 -0.0910157,-0.0377047 -0.0232992,-0.0232992 -0.0377087,-0.0554803 -0.0377087,-0.0910197 0,-0.0352992 0.0144016,-0.0674094 0.0377087,-0.0908071l0.000106299 -0.000102362 0.000102362 -0.000106299 0.000129921 -0.000125984c0.0233858,-0.0232323 0.0554409,-0.0375827 0.0906772,-0.0375827zm0.0156024 0.113126c-0.00398819,-0.00398819 -0.00951181,-0.00645669 -0.0156024,-0.00645669 -0.00623228,0 -0.0117441,0.00238976 -0.0155984,0.00624803l-3.93701e-006 -3.93701e-006 -0.000204724 0.000212598c-0.00385827,0.00385433 -0.00624803,0.00936614 -0.00624803,0.0155984 0,0.00609055 0.0024685,0.0116142 0.00645669,0.0156024 0.00398425,0.00398425 0.00950787,0.00645276 0.0155984,0.00645276 0.0061811,0 0.0117283,-0.0024252 0.0157047,-0.00635039 0.0039252,-0.00397638 0.00635039,-0.00952362 0.00635039,-0.0157047 0,-0.00609055 -0.0024685,-0.0116142 -0.00645276,-0.0155984z"/>
  <path class="fil0" d="M2.83907 3.51603l1.14852 0c0.0441811,0 0.08,0.0358189 0.08,0.08l0 1.8973c0,0.0441811 -0.0358189,0.08 -0.08,0.08l-1.14852 0c-0.0441811,0 -0.08,-0.0358189 -0.08,-0.08l0 -1.8973c0,-0.0441811 0.0358189,-0.08 0.08,-0.08zm1.06852 0.16l-0.98852 0 0 1.7373 0.98852 0 0 -1.7373z"/>
  <path class="fil0" d="M1.30667 3.51603l1.14852 0c0.0441811,0 0.08,0.0358189 0.08,0.08l0 1.8973c0,0.0441811 -0.0358189,0.08 -0.08,0.08l-1.14852 0c-0.0441811,0 -0.08,-0.0358189 -0.08,-0.08l0 -1.8973c0,-0.0441811 0.0358189,-0.08 0.08,-0.08zm1.06852 0.16l-0.98852 0 0 1.7373 0.98852 0 0 -1.7373z"/>
  <path class="fil0" d="M3.08297 4.92974c0,-0.0294528 0.0238819,-0.0533346 0.0533346,-0.0533346 0.0294528,0 0.0533346,0.0238819 0.0533346,0.0533346l0 0.333335c0,0.0294528 -0.0238819,0.0533346 -0.0533346,0.0533346 -0.0294528,0 -0.0533346,-0.0238819 -0.0533346,-0.0533346l0 -0.333335z"/>
  <path class="fil0" d="M3.26765 4.92974c0,-0.0294528 0.0238819,-0.0533346 0.0533346,-0.0533346 0.0294528,0 0.0533346,0.0238819 0.0533346,0.0533346l0 0.333335c0,0.0294528 -0.0238819,0.0533346 -0.0533346,0.0533346 -0.0294528,0 -0.0533346,-0.0238819 -0.0533346,-0.0533346l0 -0.333335z"/>
  <path class="fil0" d="M3.45234 4.92974c0,-0.0294528 0.0238819,-0.0533346 0.0533346,-0.0533346 0.0294528,0 0.0533346,0.0238819 0.0533346,0.0533346l0 0.333335c0,0.0294528 -0.0238819,0.0533346 -0.0533346,0.0533346 -0.0294528,0 -0.0533346,-0.0238819 -0.0533346,-0.0533346l0 -0.333335z"/>
  <path class="fil0" d="M3.63702 4.92974c0,-0.0294528 0.0238819,-0.0533346 0.0533346,-0.0533346 0.0294528,0 0.0533346,0.0238819 0.0533346,0.0533346l0 0.333335c0,0.0294528 -0.0238819,0.0533346 -0.0533346,0.0533346 -0.0294528,0 -0.0533346,-0.0238819 -0.0533346,-0.0533346l0 -0.333335z"/>
  <path class="fil0" d="M3.16183 4.23602c0.0352992,0 0.0674094,0.0144016 0.0908071,0.0377087l0.000102362 0.000106299 0.000106299 0.000102362 0.000125984 0.000129921c0.0232323,0.0233858 0.0375827,0.0554409 0.0375827,0.0906772 0,0.0355394 -0.0144094,0.0677205 -0.0377087,0.0910197 -0.0232953,0.0232953 -0.0554764,0.0377047 -0.0910157,0.0377047 -0.0353976,0 -0.0675118,-0.0144134 -0.090811,-0.0377047l-0.000204724 -0.000212598 -3.93701e-006 3.93701e-006c-0.0232913,-0.0232992 -0.0377047,-0.0554134 -0.0377047,-0.090811 0,-0.0355394 0.0144094,-0.0677205 0.0377047,-0.0910157 0.0232992,-0.0232992 0.0554803,-0.0377087 0.0910197,-0.0377087zm0.0155984 0.112917c-0.00385433,-0.00385827 -0.00936614,-0.00624803 -0.0155984,-0.00624803 -0.00609055,0 -0.0116142,0.0024685 -0.0156024,0.00645669 -0.00398425,0.00398425 -0.00645276,0.00950787 -0.00645276,0.0155984 0,0.0061811 0.0024252,0.0117283 0.00635039,0.0157047 0.00397638,0.0039252 0.00952362,0.00635039 0.0157047,0.00635039 0.00609055,0 0.0116142,-0.0024685 0.0155984,-0.00645276 0.00398819,-0.00398819 0.00645669,-0.00951181 0.00645669,-0.0156024 0,-0.00623228 -0.00238976,-0.0117441 -0.00624803,-0.0155984l3.93701e-006 -3.93701e-006 -0.000212598 -0.000204724z"/>
  <path class="fil0" d="M3.08297 4.92974c0,-0.0294528 0.0238819,-0.0533346 0.0533346,-0.0533346 0.0294528,0 0.0533346,0.0238819 0.0533346,0.0533346l0 0.333335c0,0.0294528 -0.0238819,0.0533346 -0.0533346,0.0533346 -0.0294528,0 -0.0533346,-0.0238819 -0.0533346,-0.0533346l0 -0.333335z"/>
  <path class="fil0" d="M3.26765 4.92974c0,-0.0294528 0.0238819,-0.0533346 0.0533346,-0.0533346 0.0294528,0 0.0533346,0.0238819 0.0533346,0.0533346l0 0.333335c0,0.0294528 -0.0238819,0.0533346 -0.0533346,0.0533346 -0.0294528,0 -0.0533346,-0.0238819 -0.0533346,-0.0533346l0 -0.333335z"/>
  <path class="fil0" d="M3.45234 4.92974c0,-0.0294528 0.0238819,-0.0533346 0.0533346,-0.0533346 0.0294528,0 0.0533346,0.0238819 0.0533346,0.0533346l0 0.333335c0,0.0294528 -0.0238819,0.0533346 -0.0533346,0.0533346 -0.0294528,0 -0.0533346,-0.0238819 -0.0533346,-0.0533346l0 -0.333335z"/>
  <path class="fil0" d="M3.63702 4.92974c0,-0.0294528 0.0238819,-0.0533346 0.0533346,-0.0533346 0.0294528,0 0.0533346,0.0238819 0.0533346,0.0533346l0 0.333335c0,0.0294528 -0.0238819,0.0533346 -0.0533346,0.0533346 -0.0294528,0 -0.0533346,-0.0238819 -0.0533346,-0.0533346l0 -0.333335z"/>
  <path class="fil0" d="M4.61537 4.92974c0,-0.0294528 0.0238819,-0.0533346 0.0533346,-0.0533346 0.0294528,0 0.0533346,0.0238819 0.0533346,0.0533346l0 0.333335c0,0.0294528 -0.0238819,0.0533346 -0.0533346,0.0533346 -0.0294528,0 -0.0533346,-0.0238819 -0.0533346,-0.0533346l0 -0.333335z"/>
  <path class="fil0" d="M4.80006 4.92974c0,-0.0294528 0.0238819,-0.0533346 0.0533346,-0.0533346 0.0294528,0 0.0533346,0.0238819 0.0533346,0.0533346l0 0.333335c0,0.0294528 -0.0238819,0.0533346 -0.0533346,0.0533346 -0.0294528,0 -0.0533346,-0.0238819 -0.0533346,-0.0533346l0 -0.333335z"/>
  <path class="fil0" d="M4.98474 4.92974c0,-0.0294528 0.0238819,-0.0533346 0.0533346,-0.0533346 0.0294528,0 0.0533346,0.0238819 0.0533346,0.0533346l0 0.333335c0,0.0294528 -0.0238819,0.0533346 -0.0533346,0.0533346 -0.0294528,0 -0.0533346,-0.0238819 -0.0533346,-0.0533346l0 -0.333335z"/>
  <path class="fil0" d="M5.16943 4.92974c0,-0.0294528 0.0238819,-0.0533346 0.0533346,-0.0533346 0.0294528,0 0.0533346,0.0238819 0.0533346,0.0533346l0 0.333335c0,0.0294528 -0.0238819,0.0533346 -0.0533346,0.0533346 -0.0294528,0 -0.0533346,-0.0238819 -0.0533346,-0.0533346l0 -0.333335z"/>
  <path class="fil0" d="M1.55056 4.92974c0,-0.0294528 0.0238819,-0.0533346 0.0533346,-0.0533346 0.0294528,0 0.0533346,0.0238819 0.0533346,0.0533346l0 0.333335c0,0.0294528 -0.0238819,0.0533346 -0.0533346,0.0533346 -0.0294528,0 -0.0533346,-0.0238819 -0.0533346,-0.0533346l0 -0.333335z"/>
  <path class="fil0" d="M1.73525 4.92974c0,-0.0294528 0.0238819,-0.0533346 0.0533346,-0.0533346 0.0294528,0 0.0533346,0.0238819 0.0533346,0.0533346l0 0.333335c0,0.0294528 -0.0238819,0.0533346 -0.0533346,0.0533346 -0.0294528,0 -0.0533346,-0.0238819 -0.0533346,-0.0533346l0 -0.333335z"/>
  <path class="fil0" d="M1.91993 4.92974c0,-0.0294528 0.0238819,-0.0533346 0.0533346,-0.0533346 0.0294528,0 0.0533346,0.0238819 0.0533346,0.0533346l0 0.333335c0,0.0294528 -0.0238819,0.0533346 -0.0533346,0.0533346 -0.0294528,0 -0.0533346,-0.0238819 -0.0533346,-0.0533346l0 -0.333335z"/>
  <path class="fil0" d="M2.10462 4.92974c0,-0.0294528 0.0238819,-0.0533346 0.0533346,-0.0533346 0.0294528,0 0.0533346,0.0238819 0.0533346,0.0533346l0 0.333335c0,0.0294528 -0.0238819,0.0533346 -0.0533346,0.0533346 -0.0294528,0 -0.0533346,-0.0238819 -0.0533346,-0.0533346l0 -0.333335z"/>
  <g id="_513123496">
   <path id="_513123784" class="fil0" d="M1.40693 3.88959c0.069311,0 0.133646,0.0220787 0.186374,0.0596181 0.0434882,0.0309606 0.0789606,0.0725748 0.102673,0.121087l0.479551 0c0.017622,0 0.033248,0.00855512 0.0429606,0.0217323l0.0741811 0.0869291c0.0165079,0.0192874 0.0167913,0.0469882 0.00215748,0.0664843l-0.0759646 0.106323c-0.0103622,0.014563 -0.0267205,0.0223386 -0.0433346,0.0223543l0 0.000145669 -0.491126 0c-0.0254252,0.0432598 -0.0606535,0.0800276 -0.102618,0.107244 -0.0505394,0.0327795 -0.110602,0.051815 -0.174854,0.051815 -0.088874,0 -0.169346,-0.0360276 -0.227591,-0.0942795 -0.058252,-0.0582441 -0.0942795,-0.138717 -0.0942795,-0.227591 0,-0.0888701 0.0360354,-0.169343 0.0942795,-0.227587 0.0582441,-0.0582441 0.138717,-0.0942756 0.227591,-0.0942756zm0.124705 0.146287c-0.0350354,-0.0249449 -0.0780669,-0.0396181 -0.124705,-0.0396181 -0.0594291,0 -0.113236,0.0240866 -0.152173,0.0630236 -0.038937,0.038937 -0.0630276,0.0927441 -0.0630276,0.152169 0,0.0594291 0.0240866,0.113236 0.0630276,0.152173 0.038937,0.0389409 0.0927441,0.0630276 0.152173,0.0630276 0.0433307,0 0.0834764,-0.0126063 0.116941,-0.034311 0.0337087,-0.0218622 0.0609173,-0.0528425 0.0781024,-0.0894173 0.00738976,-0.0205945 0.0270827,-0.0353307 0.0502165,-0.0353307l0.496079 0 0.0365394 -0.0511457 -0.0336929 -0.0394843 -0.490362 0 0 -0.000220472c-0.0220354,3.93701e-006 -0.0426339,-0.0138189 -0.0502087,-0.0358228 -0.0147402,-0.0426102 -0.0426496,-0.0792283 -0.0789094,-0.105043z"/>
   <path id="_513123544" class="fil1" d="M1.39962 4.14375c0.0373976,0 0.0677087,0.030311 0.0677087,0.0677087 0,0.0373976 -0.030311,0.0677087 -0.0677087,0.0677087 -0.0373976,0 -0.0677087,-0.030311 -0.0677087,-0.0677087 0,-0.0373976 0.030311,-0.0677087 0.0677087,-0.0677087z"/>
  </g>
  <path class="fil2" d="M1.38667 3.15063l0.98852 0 0 -1.7373 -0.98852 0 0 1.7373zm0.533268 -0.483594c0,-0.0294528 0.0238819,-0.0533346 0.0533346,-0.0533346 0.0294528,0 0.0533346,0.0238819 0.0533346,0.0533346l0 0.333335c0,0.0294528 -0.0238819,0.0533346 -0.0533346,0.0533346 -0.0294528,0 -0.0533346,-0.0238819 -0.0533346,-0.0533346l0 -0.333335zm-0.290504 -0.693713c0.0355394,0 0.0677205,0.0144094 0.0910157,0.0377047 0.0232992,0.0232992 0.0377087,0.0554803 0.0377087,0.0910197 0,0.0352992 -0.0144016,0.0674094 -0.0377087,0.0908071l-0.000106299 0.000102362 -0.000102362 0.000106299 -0.000129921 0.000125984c-0.0233858,0.0232323 -0.0554409,0.0375827 -0.0906772,0.0375827 -0.0355394,0 -0.0677205,-0.0144094 -0.0910197,-0.0377087 -0.0232953,-0.0232953 -0.0377047,-0.0554764 -0.0377047,-0.0910157 0,-0.0353976 0.0144134,-0.0675118 0.0377047,-0.090811l0.000208661 -0.000208661c0.0232992,-0.0232913 0.0554134,-0.0377047 0.090811,-0.0377047zm0.475189 0.693713c0,-0.0294528 0.0238819,-0.0533346 0.0533346,-0.0533346 0.0294528,0 0.0533346,0.0238819 0.0533346,0.0533346l0 0.333335c0,0.0294528 -0.0238819,0.0533346 -0.0533346,0.0533346 -0.0294528,0 -0.0533346,-0.0238819 -0.0533346,-0.0533346l0 -0.333335zm-0.36937 0c0,-0.0294528 0.0238819,-0.0533346 0.0533346,-0.0533346 0.0294528,0 0.0533346,0.0238819 0.0533346,0.0533346l0 0.333335c0,0.0294528 -0.0238819,0.0533346 -0.0533346,0.0533346 -0.0294528,0 -0.0533346,-0.0238819 -0.0533346,-0.0533346l0 -0.333335zm-0.184685 0c0,-0.0294528 0.0238819,-0.0533346 0.0533346,-0.0533346 0.0294528,0 0.0533346,0.0238819 0.0533346,0.0533346l0 0.333335c0,0.0294528 -0.0238819,0.0533346 -0.0533346,0.0533346 -0.0294528,0 -0.0533346,-0.0238819 -0.0533346,-0.0533346l0 -0.333335z"/>
  <path class="fil2" d="M2.91907 1.41333l0 1.7373 0.98852 0 0 -1.7373 -0.98852 0zm0.533268 1.25371c0,-0.0294528 0.0238819,-0.0533346 0.0533346,-0.0533346 0.0294528,0 0.0533346,0.0238819 0.0533346,0.0533346l0 0.333335c0,0.0294528 -0.0238819,0.0533346 -0.0533346,0.0533346 -0.0294528,0 -0.0533346,-0.0238819 -0.0533346,-0.0533346l0 -0.333335zm-0.184685 0c0,-0.0294528 0.0238819,-0.0533346 0.0533346,-0.0533346 0.0294528,0 0.0533346,0.0238819 0.0533346,0.0533346l0 0.333335c0,0.0294528 -0.0238819,0.0533346 -0.0533346,0.0533346 -0.0294528,0 -0.0533346,-0.0238819 -0.0533346,-0.0533346l0 -0.333335zm-0.184685 0c0,-0.0294528 0.0238819,-0.0533346 0.0533346,-0.0533346 0.0294528,0 0.0533346,0.0238819 0.0533346,0.0533346l0 0.333335c0,0.0294528 -0.0238819,0.0533346 -0.0533346,0.0533346 -0.0294528,0 -0.0533346,-0.0238819 -0.0533346,-0.0533346l0 -0.333335zm0.169882 -0.656008c0.0232992,0.0232992 0.0377087,0.0554803 0.0377087,0.0910197 0,0.0352992 -0.0144016,0.0674094 -0.0377087,0.0908071l-0.000106299 0.000102362 -0.000102362 0.000106299 -0.000129921 0.000125984c-0.0233858,0.0232323 -0.0554409,0.0375827 -0.0906772,0.0375827 -0.0355394,0 -0.0677205,-0.0144094 -0.0910197,-0.0377087 -0.0232953,-0.0232953 -0.0377047,-0.0554764 -0.0377047,-0.0910157 0,-0.0353976 0.0144134,-0.0675118 0.0377047,-0.090811l0.000208661 -0.000208661c0.0232992,-0.0232913 0.0554134,-0.0377047 0.090811,-0.0377047 0.0355394,0 0.0677205,0.0144094 0.0910157,0.0377047zm0.384173 0.656008c0,-0.0294528 0.0238819,-0.0533346 0.0533346,-0.0533346 0.0294528,0 0.0533346,0.0238819 0.0533346,0.0533346l0 0.333335c0,0.0294528 -0.0238819,0.0533346 -0.0533346,0.0533346 -0.0294528,0 -0.0533346,-0.0238819 -0.0533346,-0.0533346l0 -0.333335z"/>
  <path class="fil2" d="M4.45148 1.41333l0 1.7373 0.98852 0 0 -1.7373 -0.98852 0zm0.333783 0.779736c-0.0232992,0.0232992 -0.0554803,0.0377087 -0.0910197,0.0377087 -0.0352992,0 -0.0674094,-0.0144016 -0.0908071,-0.0377087l-0.000102362 -0.000106299 -0.000106299 -0.000102362 -0.000125984 -0.000129921c-0.0232323,-0.0233858 -0.0375827,-0.0554409 -0.0375827,-0.0906772 0,-0.0355394 0.0144094,-0.0677205 0.0377087,-0.0910197 0.0232953,-0.0232953 0.0554764,-0.0377047 0.0910157,-0.0377047 0.0353976,0 0.0675118,0.0144134 0.090811,0.0377047l0.000208661 0.000208661c0.0232913,0.0232992 0.0377047,0.0554134 0.0377047,0.090811 0,0.0355394 -0.0144094,0.0677205 -0.0377047,0.0910157zm0.384169 0.473972c0,-0.0294528 0.0238819,-0.0533346 0.0533346,-0.0533346 0.0294528,0 0.0533346,0.0238819 0.0533346,0.0533346l0 0.333335c0,0.0294528 -0.0238819,0.0533346 -0.0533346,0.0533346 -0.0294528,0 -0.0533346,-0.0238819 -0.0533346,-0.0533346l0 -0.333335zm-0.184685 0c0,-0.0294528 0.0238819,-0.0533346 0.0533346,-0.0533346 0.0294528,0 0.0533346,0.0238819 0.0533346,0.0533346l0 0.333335c0,0.0294528 -0.0238819,0.0533346 -0.0533346,0.0533346 -0.0294528,0 -0.0533346,-0.0238819 -0.0533346,-0.0533346l0 -0.333335zm-0.184685 0c0,-0.0294528 0.0238819,-0.0533346 0.0533346,-0.0533346 0.0294528,0 0.0533346,0.0238819 0.0533346,0.0533346l0 0.333335c0,0.0294528 -0.0238819,0.0533346 -0.0533346,0.0533346 -0.0294528,0 -0.0533346,-0.0238819 -0.0533346,-0.0533346l0 -0.333335zm-0.184685 0c0,-0.0294528 0.0238819,-0.0533346 0.0533346,-0.0533346 0.0294528,0 0.0533346,0.0238819 0.0533346,0.0533346l0 0.333335c0,0.0294528 -0.0238819,0.0533346 -0.0533346,0.0533346 -0.0294528,0 -0.0533346,-0.0238819 -0.0533346,-0.0533346l0 -0.333335z"/>
  <path class="fil2" d="M2.91907 3.67603l0 1.7373 0.98852 0 0 -1.7373 -0.98852 0zm0.717953 1.25371c0,-0.0294528 0.0238819,-0.0533346 0.0533346,-0.0533346 0.0294528,0 0.0533346,0.0238819 0.0533346,0.0533346l0 0.333335c0,0.0294528 -0.0238819,0.0533346 -0.0533346,0.0533346 -0.0294528,0 -0.0533346,-0.0238819 -0.0533346,-0.0533346l0 -0.333335zm-0.184685 0c0,-0.0294528 0.0238819,-0.0533346 0.0533346,-0.0533346 0.0294528,0 0.0533346,0.0238819 0.0533346,0.0533346l0 0.333335c0,0.0294528 -0.0238819,0.0533346 -0.0533346,0.0533346 -0.0294528,0 -0.0533346,-0.0238819 -0.0533346,-0.0533346l0 -0.333335zm-0.184685 0c0,-0.0294528 0.0238819,-0.0533346 0.0533346,-0.0533346 0.0294528,0 0.0533346,0.0238819 0.0533346,0.0533346l0 0.333335c0,0.0294528 -0.0238819,0.0533346 -0.0533346,0.0533346 -0.0294528,0 -0.0533346,-0.0238819 -0.0533346,-0.0533346l0 -0.333335zm-0.105819 -0.693713c0.0352992,0 0.0674094,0.0144016 0.0908071,0.0377087l0.000102362 0.000106299 0.000106299 0.000102362 0.000125984 0.000129921c0.0232323,0.0233858 0.0375827,0.0554409 0.0375827,0.0906772 0,0.0355394 -0.0144094,0.0677205 -0.0377087,0.0910197 -0.0232953,0.0232953 -0.0554764,0.0377047 -0.0910157,0.0377047 -0.0353976,0 -0.0675118,-0.0144134 -0.090811,-0.0377047l-0.000208661 -0.000208661c-0.0232913,-0.0232992 -0.0377047,-0.0554134 -0.0377047,-0.090811 0,-0.0355394 0.0144094,-0.0677205 0.0377047,-0.0910157 0.0232992,-0.0232992 0.0554803,-0.0377087 0.0910197,-0.0377087zm-0.0788661 0.693713c0,-0.0294528 0.0238819,-0.0533346 0.0533346,-0.0533346 0.0294528,0 0.0533346,0.0238819 0.0533346,0.0533346l0 0.333335c0,0.0294528 -0.0238819,0.0533346 -0.0533346,0.0533346 -0.0294528,0 -0.0533346,-0.0238819 -0.0533346,-0.0533346l0 -0.333335z"/>
  <path class="fil2" d="M4.45148 3.67603l0 1.7373 0.98852 0 0 -1.7373 -0.98852 0zm0.242764 0.559996c0.0355394,0 0.0677205,0.0144094 0.0910197,0.0377087 0.0232953,0.0232953 0.0377047,0.0554764 0.0377047,0.0910157 0,0.0353976 -0.0144134,0.0675118 -0.0377047,0.090811l-0.000208661 0.000208661c-0.0232992,0.0232913 -0.0554134,0.0377047 -0.090811,0.0377047 -0.0355394,0 -0.0677205,-0.0144094 -0.0910157,-0.0377047 -0.0232992,-0.0232992 -0.0377087,-0.0554803 -0.0377087,-0.0910197 0,-0.0352992 0.0144016,-0.0674094 0.0377087,-0.0908071l0.000106299 -0.000102362 0.000102362 -0.000106299 0.000129921 -0.000125984c0.0233858,-0.0232323 0.0554409,-0.0375827 0.0906772,-0.0375827zm0.475189 0.693713c0,-0.0294528 0.0238819,-0.0533346 0.0533346,-0.0533346 0.0294528,0 0.0533346,0.0238819 0.0533346,0.0533346l0 0.333335c0,0.0294528 -0.0238819,0.0533346 -0.0533346,0.0533346 -0.0294528,0 -0.0533346,-0.0238819 -0.0533346,-0.0533346l0 -0.333335zm-0.184685 0c0,-0.0294528 0.0238819,-0.0533346 0.0533346,-0.0533346 0.0294528,0 0.0533346,0.0238819 0.0533346,0.0533346l0 0.333335c0,0.0294528 -0.0238819,0.0533346 -0.0533346,0.0533346 -0.0294528,0 -0.0533346,-0.0238819 -0.0533346,-0.0533346l0 -0.333335zm-0.184685 0c0,-0.0294528 0.0238819,-0.0533346 0.0533346,-0.0533346 0.0294528,0 0.0533346,0.0238819 0.0533346,0.0533346l0 0.333335c0,0.0294528 -0.0238819,0.0533346 -0.0533346,0.0533346 -0.0294528,0 -0.0533346,-0.0238819 -0.0533346,-0.0533346l0 -0.333335zm-0.184685 0c0,-0.0294528 0.0238819,-0.0533346 0.0533346,-0.0533346 0.0294528,0 0.0533346,0.0238819 0.0533346,0.0533346l0 0.333335c0,0.0294528 -0.0238819,0.0533346 -0.0533346,0.0533346 -0.0294528,0 -0.0533346,-0.0238819 -0.0533346,-0.0533346l0 -0.333335z"/>
  <g id="_513122224">
   <path id="_513123160" class="fil3" d="M1.64524 2.11765c0.00385827,-0.00385433 0.00624803,-0.00936614 0.00624803,-0.0155984 0,-0.00609055 -0.0024685,-0.0116142 -0.00645669,-0.0156024 -0.00398425,-0.00398425 -0.00950787,-0.00645276 -0.0155984,-0.00645276 -0.0061811,0 -0.0117283,0.0024252 -0.0157047,0.00635039 -0.0039252,0.00397638 -0.00635039,0.00952362 -0.00635039,0.0157047 0,0.00609055 0.0024685,0.0116142 0.00645276,0.0155984 0.00398819,0.00398819 0.00951181,0.00645669 0.0156024,0.00645669 0.00623228,0 0.0117441,-0.00238976 0.0156024,-0.00624409l0.000204724 -0.000212598z"/>
   <path id="_513123112" class="fil3" d="M4.67219 2.10205c0,0.00623228 0.00238976,0.0117441 0.00624409,0.0156024l0.000212598 0.000204724c0.00385433,0.00385827 0.00936614,0.00624803 0.0155984,0.00624803 0.00609055,0 0.0116142,-0.0024685 0.0156024,-0.00645669 0.00398425,-0.00398425 0.00645276,-0.00950787 0.00645276,-0.0155984 0,-0.0061811 -0.0024252,-0.0117283 -0.00635039,-0.0157047 -0.00397638,-0.0039252 -0.00952362,-0.00635039 -0.0157047,-0.00635039 -0.00609055,0 -0.0116142,0.0024685 -0.0155984,0.00645276 -0.00398819,0.00398819 -0.00645669,0.00951181 -0.00645669,0.0156024z"/>
   <path id="_513122272" class="fil3" d="M3.17764 2.11765c0.00385827,-0.00385433 0.00624803,-0.00936614 0.00624803,-0.0155984 0,-0.00609055 -0.0024685,-0.0116142 -0.00645669,-0.0156024 -0.00398425,-0.00398425 -0.00950787,-0.00645276 -0.0155984,-0.00645276 -0.0061811,0 -0.0117283,0.0024252 -0.0157047,0.00635039 -0.0039252,0.00397638 -0.00635039,0.00952362 -0.00635039,0.0157047 0,0.00609055 0.0024685,0.0116142 0.00645276,0.0155984 0.00398819,0.00398819 0.00951181,0.00645669 0.0156024,0.00645669 0.00623228,0 0.0117441,-0.00238976 0.0156024,-0.00624409l0.000204724 -0.000212598z"/>
   <path id="_513122608" class="fil3" d="M4.67219 4.36475c0,0.00609055 0.0024685,0.0116142 0.00645669,0.0156024 0.00398425,0.00398425 0.00950787,0.00645276 0.0155984,0.00645276 0.0061811,0 0.0117283,-0.0024252 0.0157047,-0.00635039 0.0039252,-0.00397638 0.00635039,-0.00952362 0.00635039,-0.0157047 0,-0.00609055 -0.0024685,-0.0116142 -0.00645276,-0.0155984 -0.00398819,-0.00398819 -0.00951181,-0.00645669 -0.0156024,-0.00645669 -0.00623228,0 -0.0117441,0.00238976 -0.0156024,0.00624409l-0.000204724 0.000212598c-0.00385827,0.00385433 -0.00624803,0.00936614 -0.00624803,0.0155984z"/>
   <path id="_513122464" class="fil3" d="M3.18389 4.36475c0,-0.00623228 -0.00238976,-0.0117441 -0.00624409,-0.0156024l-0.000212598 -0.000204724c-0.00385433,-0.00385827 -0.00936614,-0.00624803 -0.0155984,-0.00624803 -0.00609055,0 -0.0116142,0.0024685 -0.0156024,0.00645669 -0.00398425,0.00398425 -0.00645276,0.00950787 -0.00645276,0.0155984 0,0.0061811 0.0024252,0.0117283 0.00635039,0.0157047 0.00397638,0.0039252 0.00952362,0.00635039 0.0157047,0.00635039 0.00609055,0 0.0116142,-0.0024685 0.0155984,-0.00645276 0.00398819,-0.00398819 0.00645669,-0.00951181 0.00645669,-0.0156024z"/>
  </g>
  <path class="fil4" d="M1.46733 4.21146c0,0.0373976 -0.030311,0.0677087 -0.0677087,0.0677087 -0.0373976,0 -0.0677087,-0.030311 -0.0677087,-0.0677087 0,-0.0373976 0.030311,-0.0677087 0.0677087,-0.0677087 0.0373976,0 0.0677087,0.030311 0.0677087,0.0677087zm0.0643031 -0.175579c-0.0350354,-0.0249449 -0.0780669,-0.0396181 -0.124705,-0.0396181 -0.0594291,0 -0.113236,0.0240866 -0.152173,0.0630236 -0.038937,0.038937 -0.0630276,0.0927441 -0.0630276,0.152169 0,0.0594291 0.0240866,0.113236 0.0630276,0.152173 0.038937,0.0389409 0.0927441,0.0630276 0.152173,0.0630276 0.0433307,0 0.0834764,-0.0126063 0.116941,-0.034311 0.0337087,-0.0218622 0.0609173,-0.0528425 0.0781024,-0.0894173 0.00738976,-0.0205945 0.0270827,-0.0353307 0.0502165,-0.0353307l0.496079 0 0.0365394 -0.0511457 -0.0336929 -0.0394843 -0.490362 0 0 -0.000220472c-0.0220354,3.93701e-006 -0.0426339,-0.0138189 -0.0502087,-0.0358228 -0.0147402,-0.0426102 -0.0426496,-0.0792283 -0.0789094,-0.105043z"/>
  <path class="fil2" d="M1.6844 4.37426c-0.0254252,0.0432598 -0.0606535,0.0800276 -0.102618,0.107244 -0.0505394,0.0327795 -0.110602,0.051815 -0.174854,0.051815 -0.00680315,0 -0.0135591,-0.000212598 -0.0202598,-0.000625984l0 0.880634 0.98852 0 0 -1.7373 -0.98852 0 0 0.214189c0.00670079,-0.000413386 0.0134567,-0.000625984 0.0202598,-0.000625984 0.069311,0 0.133646,0.0220787 0.186374,0.0596181 0.0434882,0.0309606 0.0789606,0.0725748 0.102673,0.121087l0.479551 0c0.017622,0 0.033248,0.00855512 0.0429606,0.0217323l0.0741811 0.0869291c0.0165079,0.0192874 0.0167913,0.0469882 0.00215748,0.0664843l-0.0759646 0.106323c-0.0103622,0.014563 -0.0267205,0.0223386 -0.0433346,0.0223543l0 0.000145669 -0.491126 0zm0.42022 0.555472c0,-0.0294528 0.0238819,-0.0533346 0.0533346,-0.0533346 0.0294528,0 0.0533346,0.0238819 0.0533346,0.0533346l0 0.333335c0,0.0294528 -0.0238819,0.0533346 -0.0533346,0.0533346 -0.0294528,0 -0.0533346,-0.0238819 -0.0533346,-0.0533346l0 -0.333335zm-0.184685 0c0,-0.0294528 0.0238819,-0.0533346 0.0533346,-0.0533346 0.0294528,0 0.0533346,0.0238819 0.0533346,0.0533346l0 0.333335c0,0.0294528 -0.0238819,0.0533346 -0.0533346,0.0533346 -0.0294528,0 -0.0533346,-0.0238819 -0.0533346,-0.0533346l0 -0.333335zm-0.184685 0c0,-0.0294528 0.0238819,-0.0533346 0.0533346,-0.0533346 0.0294528,0 0.0533346,0.0238819 0.0533346,0.0533346l0 0.333335c0,0.0294528 -0.0238819,0.0533346 -0.0533346,0.0533346 -0.0294528,0 -0.0533346,-0.0238819 -0.0533346,-0.0533346l0 -0.333335zm-0.184685 0c0,-0.0294528 0.0238819,-0.0533346 0.0533346,-0.0533346 0.0294528,0 0.0533346,0.0238819 0.0533346,0.0533346l0 0.333335c0,0.0294528 -0.0238819,0.0533346 -0.0533346,0.0533346 -0.0294528,0 -0.0533346,-0.0238819 -0.0533346,-0.0533346l0 -0.333335z"/>
  <path class="fil4" d="M2.53519 3.59603l0 1.8973c0,0.0441811 -0.0358189,0.08 -0.08,0.08l-1.14852 0c-0.0441811,0 -0.08,-0.0358189 -0.08,-0.08l0 -1.01519c-0.0170079,-0.0115197 -0.0328543,-0.024626 -0.0473307,-0.0391024 -0.058252,-0.0582441 -0.0942795,-0.138717 -0.0942795,-0.227591 0,-0.0888701 0.0360354,-0.169343 0.0942795,-0.227587 0.0144764,-0.0144764 0.0303228,-0.0275787 0.0473307,-0.0390984l0 -0.34874c0,-0.0441811 0.0358189,-0.08 0.08,-0.08l1.14852 0c0.0441811,0 0.08,0.0358189 0.08,0.08zm0.223886 1.8973l0 -1.8973c0,-0.0441811 0.0358189,-0.08 0.08,-0.08l1.14852 0c0.0441811,0 0.08,0.0358189 0.08,0.08l0 1.8973c0,0.0441811 -0.0358189,0.08 -0.08,0.08l-1.14852 0c-0.0441811,0 -0.08,-0.0358189 -0.08,-0.08zm0.08 -2.1827c-0.0441811,0 -0.08,-0.0358189 -0.08,-0.08l0 -1.8973c0,-0.0441811 0.0358189,-0.08 0.08,-0.08l1.14852 0c0.0441811,0 0.08,0.0358189 0.08,0.08l0 1.8973c0,0.0441811 -0.0358189,0.08 -0.08,0.08l-1.14852 0zm2.99318 -2.24019l-4.83784 0 0 4.68577 4.83784 0 0 -4.68577zm-1.54078 4.42288l0 -1.8973c0,-0.0441811 0.0358189,-0.08 0.08,-0.08l1.14852 0c0.0441811,0 0.08,0.0358189 0.08,0.08l0 1.8973c0,0.0441811 -0.0358189,0.08 -0.08,0.08l-1.14852 0c-0.0441811,0 -0.08,-0.0358189 -0.08,-0.08zm0 -2.2627l0 -1.8973c0,-0.0441811 0.0358189,-0.08 0.08,-0.08l1.14852 0c0.0441811,0 0.08,0.0358189 0.08,0.08l0 1.8973c0,0.0441811 -0.0358189,0.08 -0.08,0.08l-1.14852 0c-0.0441811,0 -0.08,-0.0358189 -0.08,-0.08zm-1.83629 0.08l-1.14852 0c-0.0441811,0 -0.08,-0.0358189 -0.08,-0.08l0 -1.8973c0,-0.0441811 0.0358189,-0.08 0.08,-0.08l1.14852 0c0.0441811,0 0.08,0.0358189 0.08,0.08l0 1.8973c0,0.0441811 -0.0358189,0.08 -0.08,0.08z"/>
 </g>
 <rect class="fil5" width="6.82666" height="6.82666"/>
</svg>
